<svg xmlns="http://www.w3.org/2000/svg" viewBox="0 0 186 139"><defs><style>.cls-1{fill:#507dbc;}.cls-2{fill:#a6cafd;}</style></defs><g id="OBJECTS"><path class="cls-1" d="M110.42,91a22.2,22.2,0,0,0-21,1.62,17,17,0,0,0-7.32,18.23,16.77,16.77,0,0,0,1.81,4.57,17.59,17.59,0,0,0,3.33,4,.59.59,0,0,0,.9-.1,16.63,16.63,0,0,0,2,1.8c5.56,4.19,13.24,4.44,19.62,1.67s11.09-8.59,11.19-15.23A18.48,18.48,0,0,0,110.42,91Zm-7,32.09A17.72,17.72,0,0,1,94.51,122a16,16,0,0,1-6.59-5.15c-3.3-4.42-4.42-10.45-2-15.42s8.16-7.91,14-8.24,11.65,1.91,14.48,6.67a14.32,14.32,0,0,1-.46,14.79,13.55,13.55,0,0,1-6,5.15,14.79,14.79,0,0,1-8.48.9c-5.7-1-11.07-4.86-12.58-10.09-1.74-6,2.38-12.95,8.86-15s14.29.87,16.52,6.87a10.8,10.8,0,0,1-.71,9.16,11.25,11.25,0,0,1-7.64,5.17,12.53,12.53,0,0,1-9.23-1.59,9.82,9.82,0,0,1-4.31-7.51A8.86,8.86,0,0,1,93.94,100a10.42,10.42,0,0,1,9.93-1.48c3.17,1.32,5.47,4.52,5.06,7.74a7.49,7.49,0,0,1-6.84,6,6.8,6.8,0,0,1-7-5c-.68-2.92,1.55-5.47,4.6-6.17s6.34,1,6.63,4a3.19,3.19,0,0,1-2,3.38,3.91,3.91,0,0,1-3.86-.48,2.56,2.56,0,0,1,.2-3.82,3.31,3.31,0,0,1,4.41.44c.31.38,1,0,.71-.37a4.29,4.29,0,0,0-4.29-1.41,3.66,3.66,0,0,0-2.82,3.29c-.22,3.24,4,4.49,6.67,3,3.18-1.74,2.5-6-.08-8s-6.35-1.5-8.84.29a5.9,5.9,0,0,0-1.53,8.17A8.1,8.1,0,0,0,104,113c3.53-1.07,6.2-4.22,6.11-7.65A9.14,9.14,0,0,0,104,97.42,11.73,11.73,0,0,0,93.2,99.17a9.84,9.84,0,0,0-3.91,8.58A10.91,10.91,0,0,0,93.87,116a13.65,13.65,0,0,0,10.25,2,12.43,12.43,0,0,0,8.54-5.7,11.79,11.79,0,0,0,.87-9.9c-2.42-6.69-11.06-10.1-18.25-7.79s-11.68,10-9.54,16.74c1.87,5.84,8.1,10,14.59,10.82a15.84,15.84,0,0,0,9.54-1.75,14.92,14.92,0,0,0,6.08-6.42c2.63-5.3,2.33-12-1.72-16.63-4.18-4.81-11.55-6.28-17.9-4.88s-11.62,5.85-12.85,11.84a15.37,15.37,0,0,1,.68-2.67c2.06-5.87,7.84-9.82,14.42-10.8a18.34,18.34,0,0,1,17,6.21c3.8,4.72,5.11,11.32,2.28,16.72C115.22,118.8,109.48,122.35,103.38,123.11Z"/><path class="cls-2" d="M71.73,41.22c-9.68-4.59-22.1-3.39-30.87,2.39a25,25,0,0,0-10.75,26.8,24.23,24.23,0,0,0,2.66,6.72A25.56,25.56,0,0,0,37.66,83,.87.87,0,0,0,39,82.87a25,25,0,0,0,3,2.64C50.15,91.67,61.44,92,70.82,88c9.57-4.15,16.31-12.64,16.45-22.4S81.38,45.8,71.73,41.22ZM61.38,88.4a25.92,25.92,0,0,1-13-1.6,23.43,23.43,0,0,1-9.7-7.57c-4.84-6.5-6.5-15.36-2.9-22.67s12-11.63,20.61-12.11,17.13,2.8,21.3,9.79c4,6.66,3.42,15.27-.69,21.76a19.83,19.83,0,0,1-8.74,7.57,21.67,21.67,0,0,1-12.47,1.32c-8.38-1.49-16.28-7.14-18.5-14.83-2.57-8.88,3.49-19,13-22s21,1.27,24.29,10.09a15.93,15.93,0,0,1-1,13.47A16.56,16.56,0,0,1,62.3,79.2a18.45,18.45,0,0,1-13.58-2.33,14.48,14.48,0,0,1-6.34-11.05A13.06,13.06,0,0,1,47.5,54.4c3.94-3,9.82-4.17,14.59-2.18s8.06,6.65,7.45,11.39c-.58,4.52-5,8.51-10.05,8.86a10,10,0,0,1-10.32-7.41c-1-4.28,2.28-8,6.77-9.07s9.32,1.41,9.75,5.88a4.68,4.68,0,0,1-3,5,5.74,5.74,0,0,1-5.68-.7,3.78,3.78,0,0,1,.29-5.62,4.87,4.87,0,0,1,6.49.65c.46.55,1.51,0,1-.55a6.3,6.3,0,0,0-6.29-2.07,5.39,5.39,0,0,0-4.15,4.84c-.33,4.76,5.85,6.6,9.8,4.43,4.68-2.57,3.68-8.9-.11-11.74s-9.34-2.2-13,.42a8.68,8.68,0,0,0-2.26,12,11.92,11.92,0,0,0,13.45,5c5.19-1.58,9.12-6.22,9-11.26s-3.9-9.68-9-11.59a17.19,17.19,0,0,0-15.92,2.57,14.45,14.45,0,0,0-5.75,12.61,16,16,0,0,0,6.73,12.09,20.08,20.08,0,0,0,15.08,2.86A18.26,18.26,0,0,0,75,72.4a17.4,17.4,0,0,0,1.28-14.56C72.74,48,60,43,49.46,46.38S32.29,61.15,35.44,71c2.75,8.58,11.91,14.78,21.46,15.91a23.36,23.36,0,0,0,14-2.57,22.1,22.1,0,0,0,9-9.44c3.86-7.81,3.41-17.6-2.54-24.46-6.14-7.07-17-9.24-26.31-7.18s-17.1,8.61-18.9,17.41a23.24,23.24,0,0,1,1-3.92c3-8.63,11.53-14.44,21.21-15.88s19.26,2,25,9.12c5.59,6.95,7.51,16.66,3.35,24.6C78.78,82.07,70.34,87.29,61.38,88.4Z"/><path class="cls-1" d="M141,17.17c-9.68-4.58-22.1-3.38-30.86,2.39a25,25,0,0,0-10.76,26.8,24.17,24.17,0,0,0,2.66,6.73A25.51,25.51,0,0,0,106.94,59a.87.87,0,0,0,1.32-.14,26,26,0,0,0,3,2.65c8.19,6.15,19.48,6.52,28.86,2.45,9.57-4.14,16.31-12.63,16.45-22.4S150.66,21.75,141,17.17ZM130.66,64.36a25.92,25.92,0,0,1-13-1.6,23.53,23.53,0,0,1-9.7-7.58c-4.84-6.49-6.5-15.36-2.9-22.67s12-11.63,20.61-12.11,17.13,2.81,21.3,9.8c4,6.65,3.42,15.27-.69,21.76a19.9,19.9,0,0,1-8.74,7.57A21.75,21.75,0,0,1,125,60.84c-8.38-1.49-16.28-7.14-18.5-14.83-2.57-8.88,3.49-19,13-22s21,1.27,24.29,10.09a15.93,15.93,0,0,1-1,13.47,16.53,16.53,0,0,1-11.23,7.6A18.36,18.36,0,0,1,118,52.82a14.48,14.48,0,0,1-6.34-11,13.06,13.06,0,0,1,5.12-11.43c3.94-3,9.82-4.17,14.59-2.18s8.06,6.66,7.45,11.39c-.58,4.52-5,8.51-10,8.87A10,10,0,0,1,118.45,41c-1-4.29,2.28-8,6.77-9.07s9.32,1.4,9.75,5.87a4.68,4.68,0,0,1-3,5,5.74,5.74,0,0,1-5.68-.7,3.78,3.78,0,0,1,.29-5.62,4.86,4.86,0,0,1,6.49.65c.46.55,1.51,0,1-.56a6.32,6.32,0,0,0-6.29-2.07,5.39,5.39,0,0,0-4.15,4.84c-.33,4.77,5.85,6.6,9.8,4.44,4.68-2.57,3.68-8.91-.11-11.75s-9.34-2.2-13,.43a8.67,8.67,0,0,0-2.26,12,11.91,11.91,0,0,0,13.45,5c5.19-1.57,9.12-6.22,9-11.26s-3.9-9.68-9-11.59c-5.31-2-11.57-.68-15.92,2.57a14.47,14.47,0,0,0-5.75,12.62,16.07,16.07,0,0,0,6.73,12.09,20.17,20.17,0,0,0,15.08,2.86,18.27,18.27,0,0,0,12.56-8.38,17.4,17.4,0,0,0,1.28-14.56C142,24,129.32,18.93,118.74,22.33S101.57,37.1,104.72,47c2.75,8.57,11.91,14.78,21.46,15.9a23.29,23.29,0,0,0,14-2.57,22,22,0,0,0,9-9.43c3.86-7.81,3.41-17.61-2.54-24.47-6.14-7.07-17-9.23-26.31-7.17s-17.1,8.61-18.9,17.4a23.48,23.48,0,0,1,1-3.92c3-8.62,11.53-14.44,21.21-15.88s19.26,2,25,9.13c5.59,7,7.51,16.65,3.35,24.59C148.06,58,139.62,63.25,130.66,64.36Z"/></g></svg>